# xmcd
#
# Track frame offsets: 
#        150
#        24080
#        47815
#        65003
#        89131
#        105411
#        128341
#        147041
#        164799
#        183062
#        204294
#        229696
#        248453
#        267841
#        293881
#        315345
#        336867
#
# Disc length: 4796 seconds
#
# Revision: 3
# Processed by: cddbd v1.5.2PL0 Copyright (c) Steve Scherf et al.
# Submitted via: ExactAudioCopy v1.0b3
#
DISCID=e212ba11
DTITLE=伊藤由奈 - LOVE ~Singles Best 2005-2010~
DYEAR=2010
DGENRE=JPop
TTITLE0=守ってあげたい
TTITLE1=Let it Go
TTITLE2=今でも会いたいよ… (with Spontania)
TTITLE3=trust you
TTITLE4=恋はgroovyx2
TTITLE5=miss you
TTITLE6=あなたがいる限り~A WORLD TO BELIEVE IN~(with Celine Dion)
TTITLE7=Urban Mermaid
TTITLE8=Mahaloha (with Micro)
TTITLE9=I'm Here
TTITLE10=Truth
TTITLE11=losin'
TTITLE12=stuck on you
TTITLE13=Precious
TTITLE14=Pureyes
TTITLE15=Faith
TTITLE16=ENDLESS STORY
EXTD=YEAR: 2010
EXTT0=
EXTT1=
EXTT2=
EXTT3=
EXTT4=
EXTT5=
EXTT6=
EXTT7=
EXTT8=
EXTT9=
EXTT10=
EXTT11=
EXTT12=
EXTT13=
EXTT14=
EXTT15=
EXTT16=
PLAYORDER=
